# xmcd CD database file
#
# Track frame offsets:
#	182
#	12832
#	22657
#	37357
#	47707
#	67432
#
# Disc length: 1062 seconds
#
# Revision: 0
# Processed by: cddbd v1.5PL3 Copyright (c) Steve Scherf et al.
# Submitted via: CDex 1.50
#
DISCID=4e042406
DTITLE=Daniel O'Donnell - Mother's Day Bonus
DYEAR=1995
DGENRE=Country
TTITLE0=Medals For Mothers
TTITLE1=Our House Is A Home
TTITLE2=I Love You Because
TTITLE3=Home Is Where The Heart Is
TTITLE4=Silver Threads Among The Gold
TTITLE5=Home sweet Home
EXTD=YEAR: 1995
EXTT0=
EXTT1=
EXTT2=
EXTT3=
EXTT4=
EXTT5=
PLAYORDER=
